<?xml version="1.0" encoding="UTF-8" standalone="no"?>
<!-- Created with Inkscape (http://www.inkscape.org/) -->

<svg
   version="1.1"
   id="svg1"
   width="359.66348"
   height="61.73769"
   viewBox="0 0 359.66348 61.73769"
   sodipodi:docname="logo.svg"
   inkscape:version="1.3.1 (9b9bdc1480, 2023-11-25, custom)"
   xmlns:inkscape="http://www.inkscape.org/namespaces/inkscape"
   xmlns:sodipodi="http://sodipodi.sourceforge.net/DTD/sodipodi-0.dtd"
   xmlns="http://www.w3.org/2000/svg"
   xmlns:svg="http://www.w3.org/2000/svg">
  <defs
     id="defs1" />
  <sodipodi:namedview
     id="namedview1"
     pagecolor="#ffffff"
     bordercolor="#000000"
     borderopacity="0.25"
     inkscape:showpageshadow="2"
     inkscape:pageopacity="0.0"
     inkscape:pagecheckerboard="0"
     inkscape:deskcolor="#d1d1d1"
     inkscape:zoom="2.6117701"
     inkscape:cx="-96.103405"
     inkscape:cy="105.29258"
     inkscape:window-width="1850"
     inkscape:window-height="1016"
     inkscape:window-x="0"
     inkscape:window-y="0"
     inkscape:window-maximized="1"
     inkscape:current-layer="g1" />
  <g
     inkscape:groupmode="layer"
     inkscape:label="Image"
     id="g1"
     transform="translate(-4.3876758,-132.13719)">
    <path
       style="fill:#000000"
       d="M 18.794472,179.41853 18.56541,141.7897 c 0,0 0.687946,-1.16582 -1.078072,-1.16582 -1.766018,0 -12.4559534,0.15081 -12.4559534,0.15081 0,0 -0.4923121,-1.16431 -0.6279259,-2.21883 -0.1356138,-1.05452 0.6472993,-1.872 0.6472993,-1.872 l 30.24111,-0.005 c 0,0 1.402482,0.61463 1.423375,1.81882 0.02089,1.20419 -1.49707,2.30506 -1.49707,2.30506 l -10.786802,-0.26553 c 0,0 -2.34798,-0.234 -2.240477,2.00191 0.107504,2.23592 0.523842,37.11677 0.523842,37.11677 0,0 -2.324808,0.58804 -3.920264,-0.2378 z"
       id="path1" />
    <path
       style="fill:#000000"
       d="m 42.436092,179.90666 0.23628,-31.51215 c 0,0 0.624886,-0.84711 2.236677,-0.84711 1.61179,0 2.444846,1.07959 2.444846,1.07959 l -0.04634,4.3913 c 0,0 -0.24683,-0.78179 0.434756,-1.50471 0.99196,-1.05212 0.104963,-0.0686 0.104963,-0.0686 0,0 3.401722,-2.4015 4.780367,-3.00829 1.681796,-0.74022 6.620383,-1.15556 6.620383,-1.15556 0,0 1.041225,0.89079 1.091748,1.94379 0.05052,1.05301 -1.2323,2.4893 -1.2323,2.4893 0,0 -1.865544,-0.0331 -6.593032,1.41197 -4.727488,1.44503 -4.532235,8.48897 -4.532235,8.48897 l -0.338464,17.63815 c 0,0 -0.368855,1.9966 -5.207645,0.65337 z"
       id="path2"
       sodipodi:nodetypes="ccsccscscsccccsc" />
    <path
       style="fill:#000000"
       d="m 79.572611,183.46909 0.559549,-39.56731 c 0,0 -0.936001,0.76924 -1.667631,2.02053 -0.731631,1.25129 -10.685757,24.67183 -10.685757,24.67183 0,0 -1.502388,3.92216 0.09915,5.3273 1.601534,1.40514 11.694693,7.54765 11.694693,7.54765 z"
       id="path3" />
    <path
       style="fill:#000000"
       d="m 79.309361,183.50935 14.479143,-7.77063 c 0,0 0.994501,-1.90163 -0.147389,-4.23707 -1.141891,-2.33544 -11.449297,-26.15257 -11.449297,-26.15257 0,0 -2.249973,-2.22984 -2.311132,-0.9576 -0.06116,1.27219 0.05014,12.00619 0.05014,12.00619 0,0 0.580822,-3.81276 1.93506,-2.36432 1.354238,1.44845 8.580515,17.50026 8.580515,17.50026 0,0 0.473698,2.53867 -0.668572,3.2099 -1.142271,0.67124 -6.382204,4.03727 -6.382204,4.03727 l -4.168699,0.0756 z"
       id="path4"
       sodipodi:nodetypes="ccscscscsccc" />
    <path
       style="fill:#000000"
       d="m 124.95346,180.02556 -0.74645,-46.16034 c 0,0 0.56943,-1.72803 2.33089,-1.72803 1.76146,0 2.96337,0.69554 3.04162,2.16602 0.0783,1.47048 0.0292,45.4101 0.0292,45.4101 0,0 -1.98178,1.40172 -4.65531,0.31225 z"
       id="path5" />
    <path
       style="fill:#000000"
       d="m 124.79087,175.92372 c 0,0 -1.73975,3.07931 -4.83879,3.58674 -8.41651,1.37809 -10.65539,-0.20704 -10.65539,-0.20704 0,0 -7.3606,-4.62899 -7.53091,-8.69561 -0.16024,-3.82626 -0.80162,-9.90278 0.0403,-12.30172 0.83631,-2.38296 2.22148,-5.62474 4.59226,-8.14518 2.37077,-2.52045 8.58469,-3.30374 8.58469,-3.30374 0,0 5.62854,0.86079 7.93929,2.54475 2.31075,1.68397 2.17818,6.61127 2.17818,6.61127 0,0 -2.34646,-2.89651 -6.62722,-4.61885 -4.28076,-1.72233 -11.50514,3.6555 -11.51805,6.57214 -0.0129,2.91665 -1.33943,8.89543 0.38101,12.77049 1.72043,3.87506 4.88703,7.47167 9.04509,6.17024 4.15806,-1.30144 7.78507,-3.47164 8.42819,-6.20443 0.64312,-2.73279 -0.0186,5.22094 -0.0186,5.22094 z"
       id="path6"
       sodipodi:nodetypes="cscssscscssssscc" />
    <path
       style="fill:#000000"
       d="m 162.79806,177.04738 c 0,0 -1.22585,2.28112 -5.32351,2.96071 -4.09766,0.67959 -8.0335,0.83951 -13.52073,-2.09499 -5.48723,-2.9345 -6.26482,-10.23637 -6.36207,-12.41151 -0.0973,-2.17513 4.80422,-2.0494 4.80422,-2.0494 l 0.0991,3.78199 c 0,0 0.11662,1.82072 1.46326,4.45399 1.34664,2.63326 3.63574,3.93811 5.62854,4.71533 1.9928,0.77721 4.63784,0.87598 6.56568,0.11092 1.92784,-0.76506 2.13943,-2.26935 4.18276,-2.48473 2.04332,-0.21539 2.4627,3.01769 2.4627,3.01769 z"
       id="path7" />
    <path
       style="fill:#000000"
       d="m 137.52945,161.70783 26.81544,0.19753 -0.007,3.87886 -26.57232,0.0125 c 0,0 -0.34606,-1.90771 -0.23628,-4.08892 z"
       id="path8"
       sodipodi:nodetypes="cccccc" />
    <path
       style="fill:#000000"
       d="m 137.77599,161.89017 c 0,0 -1.08985,-3.57762 4.05436,-10.10912 5.1442,-6.53149 14.14827,-4.26176 14.14827,-4.26176 0,0 5.94839,1.60077 7.51574,7.58259 1.56734,5.98182 0.48661,8.20786 0.48661,8.20786 l -3.27106,0.20057 -0.33581,-2.31189 c 0,0 0.4927,-0.58918 -1.02983,-5.64715 -1.52252,-5.05798 -7.92827,-4.43993 -7.92827,-4.43993 0,0 -3.87582,0.11548 -6.97708,3.94192 -3.10127,3.82643 -2.06536,6.71725 -2.06536,6.71725 l -1.52328,2.4513 z"
       id="path9" />
    <path
       style="fill:#000000"
       d="m 174.41943,171.14153 c 0,0 -3.73906,1.99318 -2.74,3.11494 0.99906,1.12176 4.46842,4.51476 7.90966,5.79606 3.44125,1.28131 11.36687,0.74645 14.66338,-0.68984 3.29652,-1.43629 6.45438,-5.13205 6.91592,-9.63048 0.46155,-4.49842 -0.83191,-6.63823 -2.40116,-8.60596 -1.56924,-1.96773 -5.71553,-4.46842 -9.41547,-5.83899 -3.69994,-1.37058 -8.22229,-2.14855 -9.22667,-4.90755 -1.00438,-2.759 -2.93564,-4.41713 1.91341,-8.8544 4.84904,-4.43727 14.48332,3.13355 14.48332,3.13355 0,0 1.09175,-0.34986 2.54475,-1.75386 1.45301,-1.404 -0.18538,-3.43821 -0.18538,-3.43821 0,0 -2.98388,-2.73393 -9.31252,-3.52178 -6.32864,-0.78785 -9.27378,0.83724 -12.73858,3.31589 -3.4648,2.47866 -4.00155,8.11783 -2.91208,10.6698 1.08946,2.55197 3.52557,6.42627 7.98297,8.51366 4.4574,2.08739 8.86162,3.00136 11.8003,5.1161 2.93868,2.11474 2.73925,7.23083 2.73925,7.23083 0,0 -0.91891,4.17212 -5.22056,5.09672 -4.30166,0.92461 -11.21606,1.78312 -16.80054,-4.74648 z"
       id="path10" />
    <path
       style="fill:#000000"
       d="m 209.63191,193.74383 -0.14169,-46.47032 5.02682,-0.12536 0.19032,46.72673 z"
       id="path11" />
    <path
       style="fill:#000000"
       d="m 214.62151,151.5744 c 0,0 2.13373,-2.55387 7.55448,-4.0874 5.42075,-1.53354 9.97008,0.51586 12.6778,5.00289 2.70772,4.48703 4.85513,12.02898 1.0116,19.92345 -3.84353,7.89447 -8.86314,8.14936 -8.86314,8.14936 0,0 -7.61527,0.46648 -12.37656,-2.90069 -4.7613,-3.36717 0.0794,-5.12369 0.0794,-5.12369 0,0 2.80876,3.62434 6.19683,4.29215 3.38806,0.66781 7.7824,-1.18177 9.2696,-3.97724 1.48719,-2.79547 2.60287,-8.00197 2.43877,-11.00143 -0.16411,-2.99946 -0.59412,-6.08401 -3.80479,-8.32182 -3.21066,-2.23782 -6.58923,-3.63764 -9.79952,-0.60666 -3.21028,3.03099 -4.91362,2.38559 -4.91362,2.38559 z"
       id="path12" />
    <path
       style="fill:#000000"
       d="m 245.78152,179.88387 -0.36543,-46.28456 c 0,0 1.49365,-0.87484 3.06441,-0.69174 1.57077,0.18309 2.31456,1.51226 2.31456,1.51226 l -0.10523,45.71704 c 0,0 -3.36641,0.77379 -4.90831,-0.253 z"
       id="path13" />
    <path
       style="fill:#000000"
       d="m 249.79583,151.79955 c 0,0 1.61421,-0.57807 2.24556,-1.33021 0.63134,-0.75215 2.61809,-1.40284 3.8614,-1.8906 1.24332,-0.48775 3.38807,-1.4059 7.53284,-1.49365 4.14476,-0.0877 7.98943,5.16282 8.33056,9.10588 0.34112,3.94305 0.2811,23.71683 0.2811,23.71683 0,0 -1.3455,0.29858 -2.9873,0.34151 -1.6418,0.0429 -2.77989,-1.189 -2.77989,-1.189 l 0.33048,-17.42238 c 0,0 0.52688,-3.1476 -0.0695,-5.21752 -0.5964,-2.06991 -2.56375,-4.41485 -4.89008,-4.81638 -2.32632,-0.40152 -4.38864,-0.14055 -6.97784,1.96355 -2.58919,2.10411 -4.03346,3.6969 -4.03346,3.6969 z"
       id="path14"
       sodipodi:nodetypes="csssscsccssscc" />
    <path
       style="fill:#000000"
       d="m 303.98868,176.55599 c 0,0 -1.22585,2.28112 -5.32351,2.96071 -4.09766,0.67959 -8.0335,0.83951 -13.52073,-2.09499 -5.48723,-2.9345 -6.26482,-10.23637 -6.36207,-12.41151 -0.0973,-2.17513 4.80422,-2.0494 4.80422,-2.0494 l 0.0991,3.78199 c 0,0 0.11662,1.82072 1.46326,4.45399 1.34664,2.63326 3.63574,3.93811 5.62854,4.71533 1.9928,0.77721 4.63784,0.87598 6.56568,0.11092 1.92784,-0.76506 2.13943,-2.26935 4.18276,-2.48473 2.04332,-0.21539 2.4627,3.01769 2.4627,3.01769 z"
       id="path7-3" />
    <path
       style="fill:#000000"
       d="m 278.72007,161.21644 26.81544,0.19753 -0.007,3.87886 -26.57232,0.0125 c 0,0 -0.34606,-1.90771 -0.23628,-4.08892 z"
       id="path8-5"
       sodipodi:nodetypes="cccccc" />
    <path
       style="fill:#000000"
       d="m 278.96661,161.39878 c 0,0 -1.08985,-3.57762 4.05436,-10.10912 5.1442,-6.53149 14.14827,-4.26176 14.14827,-4.26176 0,0 5.94839,1.60077 7.51574,7.58259 1.56734,5.98182 0.48661,8.20786 0.48661,8.20786 l -3.27106,0.20057 -0.33581,-2.31189 c 0,0 0.4927,-0.58918 -1.02983,-5.64715 -1.52252,-5.05798 -7.92827,-4.43993 -7.92827,-4.43993 0,0 -3.87582,0.11548 -6.97708,3.94192 -3.10127,3.82643 -2.06536,6.71725 -2.06536,6.71725 l -1.52328,2.4513 z"
       id="path9-6" />
    <path
       style="fill:#000000"
       d="m 362.50434,177.15772 c 0,0 -1.22585,2.28112 -5.32351,2.96071 -4.09766,0.67959 -8.0335,0.83951 -13.52073,-2.09499 -5.48723,-2.9345 -6.26482,-10.23637 -6.36207,-12.41151 -0.0973,-2.17513 4.80422,-2.0494 4.80422,-2.0494 l 0.0991,3.78199 c 0,0 0.11662,1.82072 1.46326,4.45399 1.34664,2.63326 3.63574,3.93811 5.62854,4.71533 1.9928,0.77721 4.63784,0.87598 6.56568,0.11092 1.92784,-0.76506 2.13943,-2.26935 4.18276,-2.48473 2.04332,-0.21539 2.4627,3.01769 2.4627,3.01769 z"
       id="path7-3-0" />
    <path
       style="fill:#000000"
       d="m 337.23573,161.81817 26.81544,0.19753 -0.007,3.87886 -26.57232,0.0125 c 0,0 -0.34606,-1.90771 -0.23628,-4.08892 z"
       id="path8-5-6"
       sodipodi:nodetypes="cccccc" />
    <path
       style="fill:#000000"
       d="m 337.48227,162.00051 c 0,0 -1.08985,-3.57762 4.05436,-10.10912 5.1442,-6.53149 14.14827,-4.26176 14.14827,-4.26176 0,0 5.94839,1.60077 7.51574,7.58259 1.56734,5.98182 0.48661,8.20786 0.48661,8.20786 l -3.27106,0.20057 -0.33581,-2.31189 c 0,0 0.4927,-0.58918 -1.02983,-5.64715 -1.52252,-5.05798 -7.92827,-4.43993 -7.92827,-4.43993 0,0 -3.87582,0.11548 -6.97708,3.94192 -3.10127,3.82643 -2.06536,6.71725 -2.06536,6.71725 l -1.52328,2.4513 z"
       id="path9-6-2" />
    <path
       style="fill:#000000"
       d="m 312.36314,179.91722 0.23628,-31.51215 c 0,0 0.62489,-0.84711 2.23668,-0.84711 1.61179,0 2.44485,1.07959 2.44485,1.07959 l -0.0463,4.3913 c 0,0 -0.79544,1.30296 0.16487,1.04806 0.96031,-0.25489 1.32499,-1.85794 1.32499,-1.85794 0,0 2.46688,-2.53982 3.83023,-3.77174 1.36336,-1.23192 6.62038,-1.15556 6.62038,-1.15556 0,0 1.04123,0.89079 1.09175,1.94379 0.0505,1.05301 -1.2323,2.4893 -1.2323,2.4893 0,0 -1.86554,-0.0331 -6.59303,1.41197 -4.72749,1.44503 -4.53223,8.48897 -4.53223,8.48897 l -0.33847,17.63815 c 0,0 -0.36885,1.9966 -5.20764,0.65337 z"
       id="path2-7" />
    <path
       style="fill:#000000"
       d="m 312.5467,179.94802 0.23628,-31.51215 c 0,0 0.62489,-0.84711 2.23668,-0.84711 1.61179,0 2.44484,1.07959 2.44484,1.07959 l -0.0463,4.3913 c 0,0 -0.24683,-0.78179 0.43476,-1.50471 0.99196,-1.05212 0.10496,-0.0686 0.10496,-0.0686 0,0 3.40173,-2.4015 4.78037,-3.00829 1.6818,-0.74022 6.62038,-1.15556 6.62038,-1.15556 0,0 1.04123,0.89079 1.09175,1.94379 0.0505,1.05301 -1.2323,2.4893 -1.2323,2.4893 0,0 -1.86554,-0.0331 -6.59303,1.41197 -4.72749,1.44503 -4.53224,8.48897 -4.53224,8.48897 l -0.33846,17.63815 c 0,0 -0.36885,1.9966 -5.20764,0.65337 z"
       id="path2-9"
       sodipodi:nodetypes="ccsccscscsccccsc" />
  </g>
</svg>
